<svg xmlns="http://www.w3.org/2000/svg" width="0" height="0" aria-hidden="true" focusable="false">
<!-- Praticulus icon set — monochrome line, 24x24. Stroke/fill inherit from host via CSS (.icon svg etc.). -->
<symbol id="i-braces" viewBox="0 0 24 24"><path d="M8 4c-2 0-2.5 1.2-2.5 3v2.2c0 1.2-.6 2-1.8 2.6 1.2.6 1.8 1.4 1.8 2.6V19c0 1.8.5 3 2.5 3"/><path d="M16 4c2 0 2.5 1.2 2.5 3v2.2c0 1.2.6 2 1.8 2.6-1.2.6-1.8 1.4-1.8 2.6V19c0 1.8-.5 3-2.5 3"/></symbol>
<symbol id="i-yaml" viewBox="0 0 24 24"><path d="M4 5.5h.01M8 5.5h11"/><path d="M8 10.5h.01M12 10.5h7"/><path d="M8 15.5h.01M12 15.5h7"/><path d="M4 20.5h.01M8 20.5h11"/></symbol>
<symbol id="i-lock" viewBox="0 0 24 24"><rect x="4.5" y="10.5" width="15" height="9.5" rx="2"/><path d="M8 10.5V8a4 4 0 0 1 8 0v2.5"/><path d="M12 14v2.5"/></symbol>
<symbol id="i-qr" viewBox="0 0 24 24"><rect x="3.5" y="3.5" width="6" height="6" rx="1"/><rect x="14.5" y="3.5" width="6" height="6" rx="1"/><rect x="3.5" y="14.5" width="6" height="6" rx="1"/><path d="M14.5 14.5h2.5v2.5M20.5 14.5v6M14.5 20.5h2.5"/></symbol>
<symbol id="i-binary" viewBox="0 0 24 24"><path d="M5 3.5h2v7H5zM5 10.5h3M14 13.5h2v7h-2zM14 20.5h3"/><path d="M13 4.5l-2 1.5 2 1.5M19.5 4.5l2 1.5-2 1.5"/></symbol>
<symbol id="i-eyedropper" viewBox="0 0 24 24"><path d="M16.5 3.5a2.5 2.5 0 0 1 3.5 3.5l-2 2 1 1-2 2-1-1-6.5 6.5L5 21l-1.5-.5L4 17l7-7-1-1 2-2 1 1 2-2z"/></symbol>
<symbol id="i-fingerprint" viewBox="0 0 24 24"><path d="M5 11a7 7 0 0 1 13-3.5"/><path d="M8 12a4 4 0 0 1 8 0c0 1 0 3-1 5"/><path d="M12 12v3c0 1.5-.3 3-1 4.5"/><path d="M5.5 16c.6 1.5.7 3 .3 4.5"/><path d="M19 13c0 2-.4 4-1.2 5.7"/></symbol>
<symbol id="i-link" viewBox="0 0 24 24"><path d="M9.5 14.5l5-5"/><path d="M8 11l-2.2 2.2a3.5 3.5 0 0 0 5 5L13 16"/><path d="M16 13l2.2-2.2a3.5 3.5 0 0 0-5-5L11 8"/></symbol>
<symbol id="i-hash" viewBox="0 0 24 24"><path d="M9 3.5 7 20.5M17 3.5l-2 17M4.5 8.5h15M3.5 15.5h15"/></symbol>
<symbol id="i-token" viewBox="0 0 24 24"><rect x="3.5" y="6.5" width="17" height="11" rx="2"/><path d="M8 12h.01M12 12h.01M16 12h.01"/></symbol>
<symbol id="i-paragraph" viewBox="0 0 24 24"><path d="M5 5.5h14M5 10h14M5 14.5h10M5 19h7"/></symbol>
<symbol id="i-regex" viewBox="0 0 24 24"><path d="M12 4.5v8M8.5 6.5l7 4M15.5 6.5l-7 4"/><rect x="4.5" y="16" width="3.5" height="3.5" rx=".8"/></symbol>
<symbol id="i-markdown" viewBox="0 0 24 24"><rect x="3" y="6" width="18" height="12" rx="2"/><path d="M6.5 15v-6l2.5 3 2.5-3v6"/><path d="M16 9v6M16 15l-1.5-1.8M16 15l1.5-1.8"/></symbol>
<symbol id="i-swatch" viewBox="0 0 24 24"><rect x="4" y="4" width="7" height="7" rx="1.2"/><rect x="13" y="4" width="7" height="7" rx="1.2"/><rect x="4" y="13" width="7" height="7" rx="1.2"/><rect x="13" y="13" width="7" height="7" rx="1.2"/></symbol>
<symbol id="i-diff" viewBox="0 0 24 24"><path d="M6 3.5v6M3 6.5h6"/><path d="M3.5 17.5h6"/><path d="M14 7l6-3.5M14 7l6 3.5M14 7v13"/></symbol>
<symbol id="i-database" viewBox="0 0 24 24"><ellipse cx="12" cy="6" rx="7" ry="2.8"/><path d="M5 6v6c0 1.5 3.1 2.8 7 2.8s7-1.3 7-2.8V6"/><path d="M5 12v6c0 1.5 3.1 2.8 7 2.8s7-1.3 7-2.8v-6"/></symbol>
<symbol id="i-palette" viewBox="0 0 24 24"><path d="M12 3.5a8.5 8.5 0 0 0 0 17c1.5 0 2-1 2-2 0-1.4 1-2 2.2-2H18a3.5 3.5 0 0 0 3.5-4.2A9 9 0 0 0 12 3.5z"/><path d="M7.5 11h.01M10 7.5h.01M14.5 7.5h.01M17 11h.01"/></symbol>
<symbol id="i-contrast" viewBox="0 0 24 24"><circle cx="12" cy="12" r="8.5"/><path d="M12 3.5v17a8.5 8.5 0 0 0 0-17z" fill="currentColor" stroke="none"/></symbol>
<symbol id="i-gradient" viewBox="0 0 24 24"><rect x="4" y="4" width="16" height="16" rx="2"/><path d="M4 16l16-9" stroke-width="1" opacity=".5"/><path d="M4 19l16-12" stroke-width="1" opacity=".3"/><path d="M4 13l16-6" stroke-width="1" opacity=".7"/></symbol>
<symbol id="i-signature" viewBox="0 0 24 24"><path d="M3.5 17c2.5 0 3-9 4.5-9s1 7 2.5 7 2-4 3.5-4 1.2 2 2.5 2 1.5-1 2.5-1"/><path d="M3.5 20.5h17"/></symbol>
<symbol id="i-timer" viewBox="0 0 24 24"><circle cx="12" cy="13.5" r="7.5"/><path d="M12 13.5V9.5M9.5 2.5h5"/><path d="M18.5 7l1.5-1.5"/></symbol>
<symbol id="i-blend" viewBox="0 0 24 24"><circle cx="9" cy="12" r="5.5"/><circle cx="15" cy="12" r="5.5"/></symbol>
<symbol id="i-certificate" viewBox="0 0 24 24"><rect x="3.5" y="4.5" width="17" height="11" rx="2"/><path d="M7 8.5h6M7 11.5h4"/><circle cx="16.5" cy="16.5" r="3"/><path d="M14.8 18.8 14 22l2.5-1.4L19 22l-.8-3.2"/></symbol>
<symbol id="i-code" viewBox="0 0 24 24"><path d="M8.5 8 4.5 12l4 4M15.5 8l4 4-4 4M13.5 5l-3 14"/></symbol>
<symbol id="i-shield" viewBox="0 0 24 24"><path d="M12 3.5 5 6.2v5.3c0 4.3 3 7.4 7 9 4-1.6 7-4.7 7-9V6.2L12 3.5z"/><path d="M9 12l2 2 4-4"/></symbol>
<symbol id="i-droplet" viewBox="0 0 24 24"><path d="M12 3.5c3.5 4 6 6.8 6 10a6 6 0 0 1-12 0c0-3.2 2.5-6 6-10z"/></symbol>
<symbol id="i-swap" viewBox="0 0 24 24"><path d="M4.5 8.5h13M14 5l3.5 3.5L14 12"/><path d="M19.5 15.5h-13M10 12l-3.5 3.5L10 19"/></symbol>
<symbol id="i-spark" viewBox="0 0 24 24"><path d="M12 3v5M12 16v5M4.2 7.5l3.3 2M16.5 14.5l3.3 2M19.8 7.5l-3.3 2M7.5 14.5l-3.3 2"/><circle cx="12" cy="12" r="3"/></symbol>
<symbol id="i-type" viewBox="0 0 24 24"><path d="M5 6.5h14M12 6.5V19M9 19h6"/></symbol>
<symbol id="i-search" viewBox="0 0 24 24"><circle cx="11" cy="11" r="6.5"/><path d="m16 16 4 4"/></symbol>
<symbol id="i-arrow" viewBox="0 0 24 24"><path d="M5 12h14M13 6l6 6-6 6"/></symbol>
<symbol id="i-flame" viewBox="0 0 24 24"><path d="M12 3.5c1 2.5 4.5 4 4.5 8a4.5 4.5 0 0 1-9 0c0-1.3.5-2.3 1.2-3 .2 1 .8 1.6 1.6 1.8-.3-2.4.8-5 1.7-6.8z"/></symbol>
<symbol id="i-check" viewBox="0 0 24 24"><path d="m5 12.5 4.5 4.5L19 6.5"/></symbol>
<symbol id="i-chevron" viewBox="0 0 24 24"><path d="m9 6 6 6-6 6"/></symbol>
<symbol id="i-clock" viewBox="0 0 24 24"><circle cx="12" cy="12" r="8.5"/><path d="M12 7.5V12l3.5 2"/></symbol>
<symbol id="i-table" viewBox="0 0 24 24"><rect x="3.5" y="4.5" width="17" height="15" rx="2"/><path d="M3.5 9.5h17M3.5 14.5h17M9.83 4.5v15M14.17 4.5v15"/></symbol>
<symbol id="i-image" viewBox="0 0 24 24"><rect x="3.5" y="4.5" width="17" height="15" rx="2"/><circle cx="8.5" cy="9.5" r="1.6"/><path d="M4 17.5l4.5-4.5 2.8 2.8L15 11l5 5"/></symbol>
</svg>
